Coordinates
version=1
nRows=17
nColumns=36
inDegrees=yes

Units are S.I. units (second, meters, Newtons, ...)
If the header above contains a line with 'inDegrees', this indicates whether rotational values are in degrees (yes) or radians (no).

endheader
time	pelvis_tilt	pelvis_list	pelvis_rotation	pelvis_tx	pelvis_ty	pelvis_tz	hip_flexion_r	hip_adduction_r	hip_rotation_r	knee_angle_r	knee_angle_r_beta	ankle_angle_r	subtalar_angle_r	mtp_angle_r	hip_flexion_l	hip_adduction_l	hip_rotation_l	knee_angle_l	knee_angle_l_beta	ankle_angle_l	subtalar_angle_l	mtp_angle_l	lumbar_extension	lumbar_bending	lumbar_rotation	arm_flex_r	arm_add_r	arm_rot_r	elbow_flex_r	pro_sup_r	arm_flex_l	arm_add_l	arm_rot_l	elbow_flex_l	pro_sup_l
      0.00000000	      4.89781664	      2.07079998	      3.00786470	      1.07281737	      0.92914465	      0.74877224	    -11.14323567	     -2.89050796	      3.22857914	     46.68572663	      0.81481964	    -13.89171148	     -7.45538556	     -6.69772653	     15.08185272	      2.88798947	      3.64143820	     25.11692916	      0.43837311	      2.97572796	     -9.92184771	     -6.69772653	    -17.43419241	     -4.56484294	      7.40295385	      0.92169525	    -13.23668087	     -1.50487812	     29.93455710	     81.81547876	      6.89698466	    -12.15648447	      8.39147197	     14.78783229	     77.13805767
      0.01666670	      3.94727981	      1.84584951	      1.71755080	      1.07366047	      0.92669145	      0.74798483	     -6.00439043	     -2.96456777	      3.85046673	     52.17662749	      0.91065394	    -17.31541074	    -10.44947448	     -6.80909848	     14.64087074	      2.82542314	      4.97622528	     25.39967978	      0.44330804	      3.53466187	    -10.54416288	     -6.80909848	    -17.47939254	     -4.96918691	      8.02914505	      0.18421348	    -13.86389564	     -1.19942017	     30.48794868	     80.03143831	      6.88101085	    -11.81096914	      7.12140155	     14.85116220	     76.00016500
      0.03333330	      3.25381298	      1.81223529	      0.60871231	      1.07429526	      0.92752351	      0.74934430	     -1.56087941	     -2.86561905	      4.69583911	     57.04195813	      0.99556998	    -17.60656541	    -11.21510963	     -6.94569664	     13.89322759	      2.65269636	      4.73776192	     25.20601287	      0.43992792	      4.79008019	    -10.93901359	     -6.94569664	    -16.67500271	     -4.96459924	      7.13385072	      1.13644951	    -14.01315706	      1.26207182	     29.27727610	     79.02896842	      6.11686863	    -11.81606956	      5.57702260	     14.69009197	     76.18697545
      0.05000000	      2.84032659	      1.53816673	     -0.29260313	      1.07516456	      0.93237723	      0.75217310	      1.90107165	     -2.43449757	      5.02421602	     60.15537957	      1.04990944	    -15.84828522	    -11.25250902	     -6.97495237	     12.55215464	      1.99772913	      4.24460774	     24.65851986	      0.43037236	      6.17656414	    -11.08541986	     -6.97495237	    -16.28314628	     -4.81935887	      7.02952800	      1.07158651	    -13.78343692	      1.39349108	     28.68926228	     77.74210571	      5.95063776	    -11.85715763	      4.88796488	     14.86276771	     75.18409397
      0.06666670	      2.48285869	      1.08504153	     -1.10538353	      1.07572370	      0.93467918	      0.75424751	      5.05570765	     -1.72253239	      5.34964172	     61.94874940	      1.08120964	    -13.09181275	    -11.70137040	     -7.00326146	     10.81929272	      1.18062201	      3.58047189	     23.54879244	      0.41100396	      7.10186491	    -10.83505190	     -7.00326146	    -15.81987758	     -4.48463132	      6.81308306	      0.84134789	    -13.38020900	      1.69347458	     27.95980864	     76.79554979	      5.71650853	    -11.88664444	      4.34639668	     15.31812156	     74.39543476
      0.08333330	      2.00488588	      0.71459557	     -1.85340637	      1.07556857	      0.93077636	      0.75511086	      8.33701938	     -1.19412890	      5.68672097	     62.44707490	      1.08990707	     -9.38650385	    -12.70826497	     -7.03855718	      9.10212541	      0.47536861	      2.73095347	     22.31873862	      0.38953547	      8.02137407	    -10.07544600	     -7.03855718	    -15.10195114	     -4.15936235	      6.56466620	      0.12706246	    -13.01913511	      1.98035689	     27.72172322	     76.27354132	      5.47453037	    -11.93518920	      4.29505466	     16.05344728	     73.99075333
      0.10000000	      1.57481521	      0.33353717	     -2.41922505	      1.07418417	      0.92618488	      0.75544996	     11.58459735	     -0.75199201	      5.84406308	     62.19765229	      1.08555382	     -5.33609496	    -13.75767912	     -7.05897389	      7.40501782	     -0.09851786	      2.17258958	     21.22463453	      0.37043976	      8.83618912	     -9.58368033	     -7.05897389	    -14.51875759	     -3.68158753	      6.01251958	     -0.67072043	    -12.77061192	      2.12872251	     27.85308858	     75.90442110	      5.25896715	    -11.93152319	      4.46105491	     17.31409898	     73.75843296
      0.11666670	      1.20538977	     -0.05754385	     -2.80149985	      1.07186028	      0.92824795	      0.75619457	     14.54106352	     -0.33914016	      5.76416392	     60.60212425	      1.05770660	     -2.02948462	    -14.64974787	     -7.08177818	      5.64249231	     -0.62418352	      1.62072340	     20.05811409	      0.35008013	      9.55441454	     -8.83109827	     -7.08177818	    -14.12981265	     -3.12630744	      5.12477590	     -1.08186412	    -12.58377717	      2.53561178	     27.41499858	     74.88927058	      5.06186475	    -12.04489583	      5.19010695	     19.07347580	     73.08386945
      0.13333330	      0.86613205	     -0.52279035	     -2.98423243	      1.06805521	      0.93653980	      0.75572140	     16.91737274	     -0.02979741	      5.28866092	     57.48208755	      1.00325169	      0.17878497	    -15.00748913	     -7.08501052	      3.82345747	     -1.16834560	      1.25073923	     18.59953454	      0.32462312	      9.85546361	     -8.13794615	     -7.08501052	    -13.99215946	     -2.33059505	      4.19053994	     -1.40859675	    -12.51433091	      2.88680599	     26.91692042	     74.16625333	      5.10346648	    -11.97478267	      5.94909481	     20.75906485	     72.62333364
      0.15000000	      0.41186007	     -0.90823457	     -3.16653752	      1.06170313	      0.94321584	      0.75276731	     18.96540699	      0.08632102	      4.81167678	     53.26636145	      0.92967339	      1.04296893	    -15.33958393	     -7.13264411	      2.26719765	     -1.64232311	      0.75423136	     17.08966898	      0.29827099	      9.95051073	     -7.05823527	     -7.13264411	    -13.93311679	     -1.49736574	      3.15611718	     -1.41053234	    -12.72306144	      4.04416095	     26.15135178	     74.19857741	      5.24372927	    -11.99418091	      7.32659321	     22.13266810	     72.78705726
      0.16666670	     -0.27720087	     -1.02134923	     -3.33910025	      1.05383532	      0.94348172	      0.74845012	     21.10047041	     -0.20414293	      4.38914703	     48.53616847	      0.84711595	      1.26946498	    -15.30607511	     -7.12999054	      1.27517678	     -1.75882554	      0.60513874	     15.82600149	      0.27621583	      9.77333279	     -6.67198538	     -7.12999054	    -13.85105260	     -0.92218782	      2.45172744	     -1.76586509	    -12.88754862	      4.06219654	     26.03423295	     74.22713209	      5.83978058	    -11.69137567	      7.53274365	     22.85449725	     72.87913736
      0.18333330	     -0.47233480	     -1.16402813	     -3.42040266	      1.04737874	      0.94086463	      0.74591295	     22.57974499	     -0.55919414	      3.92681430	     43.39672062	      0.75741566	      1.41904385	    -14.85677439	     -7.15850818	      0.10817141	     -1.85355974	      0.55216538	     15.06293969	      0.26289789	     10.40143008	     -5.95458145	     -7.15850818	    -14.72335300	     -0.28958321	      1.44558792	     -1.68312723	    -13.21085609	      4.47205022	     26.22851156	     73.57793169	      6.22366099	    -11.73476791	      8.27303574	     24.98455384	     72.51217786
      0.20000000	     -0.95851021	     -1.11495774	     -3.61929555	      1.04459071	      0.93681613	      0.74664907	     24.31366946	     -0.98690985	      3.76539052	     38.03068909	      0.66376074	      1.51084052	    -13.94808365	     -7.17325813	     -0.59105090	     -1.70303418	      0.66057138	     14.56073140	      0.25413270	     11.06252287	     -5.89315042	     -7.17325813	    -15.16102108	      0.05722549	      0.64852831	     -1.91142712	    -13.53239369	      4.97241927	     26.67016288	     74.22864191	      6.75998325	    -11.82075755	      8.99752293	     26.99856846	     73.37065030
      0.21666670	     -1.41190259	     -1.03730998	     -3.80225699	      1.04298084	      0.93298406	      0.74829063	     25.78430564	     -1.41817547	      3.63210578	     32.37452955	      0.56504213	      1.80849432	    -12.26657530	     -7.18557213	     -1.31059000	     -1.50130403	      1.04405851	     14.16332264	      0.24719661	     11.80207888	     -6.16682694	     -7.18557213	    -15.52694516	      0.34690174	     -0.03455530	     -2.27183569	    -13.80956021	      4.91716261	     27.02402288	     74.66558586	      7.41432337	    -11.84899110	      9.25439628	     28.91533953	     74.08822170
      0.23333330	     -1.77798687	     -0.90220531	     -3.93363209	      1.04023559	      0.92821182	      0.74880370	     26.99149148	     -1.91008846	      3.56679791	     26.62032086	      0.46461225	      2.38234813	     -9.90844322	     -7.19664639	     -2.16283482	     -1.24833824	      1.57787074	     13.75154720	      0.24000978	     12.39557027	     -6.50233791	     -7.19664639	    -15.93745911	      0.57334921	     -0.83473576	     -2.59531133	    -14.04479388	      4.59775103	     27.27391502	     74.94095408	      8.18581711	    -11.95961010	      9.58149033	     30.81665616	     74.72931792
      0.25000000	     -2.16144381	     -0.66589148	     -3.86939975	      1.03618959	      0.92286519	      0.74889903	     28.13743369	     -2.60000682	      3.28858861	     21.00393528	      0.36658783	      3.42885356	     -6.94998259	     -7.18237189	     -2.91078084	     -0.86841083	      2.77703062	     13.53261566	      0.23618870	     12.79967179	     -7.59044900	     -7.18237189	    -16.21293444	      0.69990021	     -1.82730517	     -2.70941134	    -14.14052815	      4.06249295	     27.11359643	     74.80178061	      9.09202704	    -12.03327839	      9.89421865	     32.24595032	     74.98424685
      0.26666670	     -2.53411060	     -0.40529949	     -3.89530923	      1.03199272	      0.91636158	      0.75164233	     29.31000415	     -3.15787832	      3.30305924	     15.89707196	      0.27745625	      4.91009410	     -4.07066804	     -7.19981943	     -3.52630039	     -0.61542008	      3.10886342	     13.70369371	      0.23917458	     14.08791177	     -7.21887479	     -7.19981943	    -16.47021615	      0.70354271	     -2.63138641	     -2.86534385	    -14.19325531	      3.68887264	     27.14876797	     74.59371015	      9.92760213	    -12.48077753	     11.04674519	     34.10573290	     75.30939535
